<?xml version="1.0" encoding="utf-8"?>
<!-- Generator: Adobe Illustrator 19.2.1, SVG Export Plug-In . SVG Version: 6.00 Build 0)  -->
<svg version="1.1" id="Warstwa_1" xmlns="http://www.w3.org/2000/svg" xmlns:xlink="http://www.w3.org/1999/xlink" x="0px" y="0px"
	 viewBox="0 0 36.8 25.2" style="enable-background:new 0 0 36.8 25.2;" xml:space="preserve">
<style type="text/css">
	.st0{fill:#FFFFFF;}
</style>
<g>
	<path class="st0" d="M19.4,17.6h3.9c0.3,0,0.6-0.2,0.8-0.4c0.2-0.3,0.2-0.6,0.1-0.9l-3.9-9.8c-0.2-0.4-0.5-0.6-0.9-0.6
		c-0.1,0-0.1,0-0.2,0c-0.5,0.1-0.8,0.5-0.8,1v9.8C18.4,17.1,18.9,17.6,19.4,17.6z M19.4,6.8l3.9,9.8h-3.9V6.8z"/>
	<path class="st0" d="M9.6,17.6h6.9c0.5,0,1-0.4,1-1V3.9c0-0.4-0.3-0.8-0.7-1c-0.1,0-0.2,0-0.2,0c-0.4,0-0.7,0.2-0.9,0.5L8.7,16.1
		c-0.2,0.3-0.2,0.7,0,1C8.9,17.4,9.3,17.6,9.6,17.6z M16.5,3.9v12.7H9.6L16.5,3.9z"/>
	<path class="st0" d="M27.2,19.3c-0.1-0.4-0.5-0.7-0.9-0.7H8.6c-0.4,0-0.8,0.3-0.9,0.7c-0.1,0.4,0,0.9,0.4,1.1l2.9,2
		c0.2,0.1,0.4,0.2,0.5,0.2h11.8c0.2,0,0.4-0.1,0.5-0.2l2.9-2C27.2,20.1,27.3,19.7,27.2,19.3z M23.3,21.5H11.6l-2.9-2h17.6L23.3,21.5
		z"/>
</g>
</svg>
