<?xml version="1.0" encoding="utf-8"?>
<!-- Generator: Adobe Illustrator 19.2.1, SVG Export Plug-In . SVG Version: 6.00 Build 0)  -->
<svg version="1.1" id="Warstwa_1" xmlns="http://www.w3.org/2000/svg" xmlns:xlink="http://www.w3.org/1999/xlink" x="0px" y="0px"
	 viewBox="0 0 36.8 25.2" style="enable-background:new 0 0 36.8 25.2;" xml:space="preserve">
<style type="text/css">
	.st0{fill:#FFFFFF;}
</style>
<g>
	<path class="st0" d="M17,2.9c-5.4,0-9.7,4.4-9.7,9.7s4.4,9.7,9.7,9.7c5.4,0,9.7-4.4,9.7-9.7S22.4,2.9,17,2.9z M17.5,21.3v-0.9
		c0-0.3-0.2-0.5-0.5-0.5c-0.3,0-0.5,0.2-0.5,0.5v0.9c-4.4-0.2-8-3.8-8.2-8.2h0.9c0.3,0,0.5-0.2,0.5-0.5s-0.2-0.5-0.5-0.5H8.3
		c0.2-4.4,3.8-8,8.2-8.2v0.9c0,0.3,0.2,0.5,0.5,0.5c0.3,0,0.5-0.2,0.5-0.5V3.9c4.4,0.2,8,3.8,8.2,8.2h-0.9c-0.3,0-0.5,0.2-0.5,0.5
		s0.2,0.5,0.5,0.5h0.9C25.5,17.5,21.9,21.1,17.5,21.3z"/>
	<path class="st0" d="M20.9,6.8c-0.2,0-0.4,0.1-0.6,0.2l-4.9,3.9c-0.1,0.1-0.2,0.2-0.3,0.3L12.2,17c-0.2,0.4-0.1,0.9,0.3,1.2
		c0.2,0.1,0.4,0.2,0.6,0.2c0.2,0,0.4-0.1,0.6-0.2l4.9-3.9c0.1-0.1,0.2-0.2,0.3-0.3l2.9-5.8C22,7.8,21.9,7.3,21.5,7
		C21.3,6.8,21.1,6.8,20.9,6.8z M18,13.6L16,11.6l4.9-3.9L18,13.6z"/>
</g>
</svg>
