<?xml version="1.0" encoding="utf-8"?>
<!-- Generator: Adobe Illustrator 19.2.1, SVG Export Plug-In . SVG Version: 6.00 Build 0)  -->
<svg version="1.1" id="Warstwa_1" xmlns="http://www.w3.org/2000/svg" xmlns:xlink="http://www.w3.org/1999/xlink" x="0px" y="0px"
	 viewBox="0 0 36.8 25.2" style="enable-background:new 0 0 36.8 25.2;" xml:space="preserve">
<style type="text/css">
	.st0{fill:#FFFFFF;}
</style>
<path class="st0" d="M31.1,17.8h0.1c-0.5-0.9-0.9-2-1.2-3.1c-1.3-3.8-2.9-8.5-10.9-8.8V4.3h0.8c0.4,0,0.8-0.3,0.8-0.7
	s-0.3-0.8-0.8-0.8h-3c-0.4,0-0.8,0.3-0.8,0.8s0.3,0.7,0.8,0.7h0.8v1.5c-8,0.3-9.6,5-10.9,8.8c-0.4,1.1-0.7,2.2-1.2,3.1h0.1
	c-1.2,0-2.2,1-2.2,2.2c0,1.2,1,2.2,2.2,2.2h25.5c1.2,0,2.2-1,2.2-2.2C33.4,18.9,32.4,17.8,31.1,17.8z M18.4,7.3
	c9.4,0,9.2,6,11.2,10.5H7.2C9.2,13.4,9,7.3,18.4,7.3z M31.1,20.8H5.6c-0.4,0-0.8-0.3-0.8-0.8s0.3-0.8,0.8-0.8h25.5
	c0.4,0,0.8,0.3,0.8,0.8S31.5,20.8,31.1,20.8z"/>
</svg>
