<?xml version="1.0" encoding="utf-8"?>
<!-- Generator: Adobe Illustrator 19.2.1, SVG Export Plug-In . SVG Version: 6.00 Build 0)  -->
<svg version="1.1" id="Warstwa_1" xmlns="http://www.w3.org/2000/svg" xmlns:xlink="http://www.w3.org/1999/xlink" x="0px" y="0px"
	 viewBox="0 0 20.1 49.7" style="enable-background:new 0 0 20.1 49.7;" xml:space="preserve">
<style type="text/css">
	.st0{fill:#767676;}
</style>
<path class="st0" d="M1.2,36.5c0,0,0.9,3.4,4.6,2.9c0,0,1.2-0.2,1.9-0.6c0.7-0.4,1-0.9,1.7-1.1c2.9-1,4.4-2.8,4.7-3.2
	c0.3-0.4,1.4-1.2,2-1.7c0.6-0.5,1.5-2.6,1.3-3.5c-0.2-1-0.6-1.4-1.7-4.5s-3-8.5-3.1-11.3c-0.2-2.9,0-13.1-5.5-12.5S0.5,7.2,2.4,11.6
	s3.4,7.6,3.2,10.3C5.1,28.7,0.4,29.3,1.2,36.5z"/>
<path class="st0" d="M7.5,43.9c-0.6-2-2.3-3.7-3.8-3.2s-2.8,2.9-2.2,4.9c0.6,2,2.8,3.2,4.3,2.7S8.1,45.9,7.5,43.9z"/>
<path class="st0" d="M11.8,44.3c-0.1-1.1-1.4-2.4-2.2-2.3s-1.4,1.1-1.3,2.2c0.1,1.1,0.9,1.9,1.8,1.8C10.9,45.9,11.9,45.4,11.8,44.3z
	"/>
<path class="st0" d="M14.6,42c-0.2-1.1-0.7-2-1.5-2c-0.8,0-1.5,0.9-1.5,2s1.3,2.3,2.1,2C14.6,43.6,14.7,42.6,14.6,42z"/>
<path class="st0" d="M17.1,38.9c0-0.9-0.5-1.6-1.2-1.6s-1.7,0.7-1.7,1.6s0.5,1.6,1.2,1.6S17.1,39.7,17.1,38.9z"/>
<path class="st0" d="M19.2,35.6c0-0.9-0.8-1.6-1.5-1.6s-1.5,0.7-1.5,1.6s0.5,1.6,1.2,1.6C18.1,37.2,19.2,36.5,19.2,35.6z"/>
</svg>
