<?xml version="1.0" encoding="utf-8"?>
<!-- Generator: Adobe Illustrator 19.2.1, SVG Export Plug-In . SVG Version: 6.00 Build 0)  -->
<svg version="1.1" id="Warstwa_1" xmlns="http://www.w3.org/2000/svg" xmlns:xlink="http://www.w3.org/1999/xlink" x="0px" y="0px"
	 viewBox="0 0 20.1 49.7" style="enable-background:new 0 0 20.1 49.7;" xml:space="preserve">
<style type="text/css">
	.st0{fill:#767676;}
</style>
<path class="st0" d="M19,36.7c0,0-0.9,3.4-4.6,2.9c0,0-1.2-0.2-1.9-0.6c-0.7-0.4-1-0.9-1.7-1.1c-2.9-1-4.4-2.8-4.7-3.2
	c-0.3-0.4-1.4-1.2-2-1.7c-0.6-0.5-1.5-2.6-1.3-3.5c0.2-1,0.6-1.4,1.7-4.5s3-8.5,3.1-11.3S7.5,0.5,13,1.1s6.7,6.3,4.8,10.6
	c-1.9,4.3-3.4,7.6-3.2,10.3C15.1,28.9,19.8,29.5,19,36.7z"/>
<path class="st0" d="M12.7,44.1c0.6-2,2.3-3.7,3.8-3.2c1.5,0.5,2.8,2.9,2.2,4.9c-0.6,2-2.8,3.2-4.3,2.7S12.1,46.1,12.7,44.1z"/>
<path class="st0" d="M8.4,44.5c0.1-1.1,1.4-2.4,2.2-2.3s1.4,1.1,1.3,2.2c-0.1,1.1-0.9,1.9-1.8,1.8C9.3,46.1,8.2,45.6,8.4,44.5z"/>
<path class="st0" d="M5.5,42.1c0.2-1.1,0.7-2,1.5-2s1.5,0.9,1.5,2s-1.3,2.3-2.1,2C5.5,43.8,5.4,42.8,5.5,42.1z"/>
<path class="st0" d="M3.1,39c0-0.9,0.5-1.6,1.2-1.6S6,38.2,6,39s-0.5,1.6-1.2,1.6S3.1,39.9,3.1,39z"/>
<path class="st0" d="M1,35.8c0-0.9,0.8-1.6,1.5-1.6S4,35,4,35.8c0,0.9-0.5,1.6-1.2,1.6S1,36.7,1,35.8z"/>
</svg>
