<?xml version="1.0" encoding="utf-8"?>
<!-- Generator: Adobe Illustrator 19.2.1, SVG Export Plug-In . SVG Version: 6.00 Build 0)  -->
<svg version="1.1" id="Warstwa_1" xmlns="http://www.w3.org/2000/svg" xmlns:xlink="http://www.w3.org/1999/xlink" x="0px" y="0px"
	 viewBox="0 0 36.8 25.2" style="enable-background:new 0 0 36.8 25.2;" xml:space="preserve">
<style type="text/css">
	.st0{fill:#FFFFFF;}
</style>
<g>
	<path class="st0" d="M32.2,2.8h-27c-0.8,0-1.5,0.7-1.5,1.5v16.5c0,0.8,0.7,1.5,1.5,1.5h27c0.8,0,1.5-0.7,1.5-1.5V4.3
		C33.7,3.5,33,2.8,32.2,2.8z M32.2,20.8h-27V4.3h27V20.8z"/>
	<path class="st0" d="M14.9,16.3c2.1,0,3.8-1.7,3.8-3.8c0-2.1-1.7-3.8-3.8-3.8c-2.1,0-3.8,1.7-3.8,3.8
		C11.2,14.7,12.8,16.3,14.9,16.3z M14.9,10.3c1.2,0,2.2,1,2.2,2.2s-1,2.2-2.2,2.2c-1.2,0-2.2-1-2.2-2.2S13.7,10.3,14.9,10.3z"/>
	<path class="st0" d="M14.9,19.3c3.7,0,6.8-3,6.8-6.8s-3-6.8-6.8-6.8c-3.7,0-6.8,3-6.8,6.8S11.2,19.3,14.9,19.3z M14.9,7.3
		c2.9,0,5.2,2.4,5.2,5.2s-2.4,5.3-5.2,5.3c-2.9,0-5.2-2.4-5.2-5.3S12,7.3,14.9,7.3z"/>
	<path class="st0" d="M28.4,10.3c1.2,0,2.2-1,2.2-2.2s-1-2.2-2.2-2.2c-1.2,0-2.2,1-2.2,2.2S27.2,10.3,28.4,10.3z M28.4,7.3
		c0.4,0,0.8,0.3,0.8,0.8s-0.3,0.8-0.8,0.8c-0.4,0-0.8-0.3-0.8-0.8S28,7.3,28.4,7.3z"/>
</g>
</svg>
