<?xml version="1.0" encoding="utf-8"?>
<!-- Generator: Adobe Illustrator 19.2.1, SVG Export Plug-In . SVG Version: 6.00 Build 0)  -->
<svg version="1.1" id="Warstwa_1" xmlns="http://www.w3.org/2000/svg" xmlns:xlink="http://www.w3.org/1999/xlink" x="0px" y="0px"
	 viewBox="0 0 36.8 25.2" style="enable-background:new 0 0 36.8 25.2;" xml:space="preserve">
<style type="text/css">
	.st0{fill:#EE6823;}
	.st1{fill:#FFFFFF;}
</style>
<g>
	<path class="st0" d="M31.9-36.7h3.9c0.3,0,0.6-0.2,0.8-0.4c0.2-0.3,0.2-0.6,0.1-0.9l-3.9-9.8c-0.2-0.4-0.5-0.6-0.9-0.6
		c-0.1,0-0.1,0-0.2,0c-0.5,0.1-0.8,0.5-0.8,1v9.8C30.9-37.1,31.4-36.7,31.9-36.7z M31.9-47.4l3.9,9.8h-3.9V-47.4z"/>
	<path class="st0" d="M22.1-36.7H29c0.5,0,1-0.4,1-1v-12.7c0-0.4-0.3-0.8-0.7-1c-0.1,0-0.2,0-0.2,0c-0.4,0-0.7,0.2-0.9,0.5
		l-6.9,12.7c-0.2,0.3-0.2,0.7,0,1C21.5-36.8,21.8-36.7,22.1-36.7z M29-50.4v12.7h-6.9L29-50.4z"/>
	<path class="st0" d="M39.7-35c-0.1-0.4-0.5-0.7-0.9-0.7H21.1c-0.4,0-0.8,0.3-0.9,0.7c-0.1,0.4,0,0.9,0.4,1.1l2.9,2
		c0.2,0.1,0.4,0.2,0.5,0.2h11.8c0.2,0,0.4-0.1,0.5-0.2l2.9-2C39.7-34.1,39.8-34.6,39.7-35z M35.8-32.7H24.1l-2.9-2h17.6L35.8-32.7z"
		/>
</g>
<g>
	<path class="st1" d="M-25.9-110.6c-5.4,0-9.7,4.4-9.7,9.7s4.4,9.7,9.7,9.7c5.4,0,9.7-4.4,9.7-9.7S-20.5-110.6-25.9-110.6z
		 M-25.4-92.1v-0.9c0-0.3-0.2-0.5-0.5-0.5c-0.3,0-0.5,0.2-0.5,0.5v0.9c-4.4-0.2-8-3.8-8.2-8.2h0.9c0.3,0,0.5-0.2,0.5-0.5
		s-0.2-0.5-0.5-0.5h-0.9c0.2-4.4,3.8-8,8.2-8.2v0.9c0,0.3,0.2,0.5,0.5,0.5c0.3,0,0.5-0.2,0.5-0.5v-0.9c4.4,0.2,8,3.8,8.2,8.2h-0.9
		c-0.3,0-0.5,0.2-0.5,0.5s0.2,0.5,0.5,0.5h0.9C-17.4-95.9-21-92.4-25.4-92.1z"/>
	<path class="st1" d="M-22-106.7c-0.2,0-0.4,0.1-0.6,0.2l-4.9,3.9c-0.1,0.1-0.2,0.2-0.3,0.3l-2.9,5.8c-0.2,0.4-0.1,0.9,0.3,1.2
		c0.2,0.1,0.4,0.2,0.6,0.2c0.2,0,0.4-0.1,0.6-0.2l4.9-3.9c0.1-0.1,0.2-0.2,0.3-0.3l2.9-5.8c0.2-0.4,0.1-0.9-0.3-1.2
		C-21.6-106.6-21.8-106.7-22-106.7z M-24.9-99.9l-1.9-1.9l4.9-3.9L-24.9-99.9z"/>
</g>
<path class="st0" d="M80.3-95.6h0.1c-0.5-0.9-0.9-2-1.2-3.1c-1.3-3.8-2.9-8.5-10.9-8.8v-1.5H69c0.4,0,0.8-0.3,0.8-0.8
	c0-0.4-0.3-0.8-0.8-0.8h-3c-0.4,0-0.8,0.3-0.8,0.8c0,0.4,0.3,0.8,0.8,0.8h0.8v1.5c-8,0.3-9.6,5-10.9,8.8c-0.4,1.1-0.7,2.2-1.2,3.1
	h0.1c-1.2,0-2.2,1-2.2,2.2s1,2.2,2.2,2.2h25.5c1.2,0,2.2-1,2.2-2.2S81.5-95.6,80.3-95.6z M67.5-106.1c9.4,0,9.2,6,11.2,10.5H56.3
	C58.3-100.1,58.1-106.1,67.5-106.1z M80.3-92.6H54.8c-0.4,0-0.8-0.3-0.8-0.8s0.3-0.8,0.8-0.8h25.5c0.4,0,0.8,0.3,0.8,0.8
	S80.7-92.6,80.3-92.6z"/>
<path class="st0" d="M29.4-127.3l-3.5-2.5l-7-14.1c-0.2-0.4-0.6-0.7-1.1-0.7c0,0,0,0,0,0c-0.5,0-0.9,0.3-1.1,0.7l-3.7,8.5l-0.5-0.4
	c-0.2-0.2-0.5-0.3-0.8-0.3c-0.1,0-0.1,0-0.2,0c-0.4,0.1-0.7,0.3-0.9,0.6l-4.9,8.5c-0.2,0.4-0.2,0.8,0,1.2c0.2,0.4,0.6,0.6,1.1,0.6
	h21.9c0.5,0,1-0.3,1.2-0.8C30.1-126.4,29.9-127,29.4-127.3z M17.8-143.3l2.5,4.9l-2.2,1.5l-0.9-1.8c-0.1-0.2-0.3-0.3-0.5-0.3h-0.6
	L17.8-143.3z M15.4-137.9h0.8l1,2.1c0.1,0.2,0.2,0.3,0.4,0.3c0.1,0,0.1,0,0.2,0c0.1,0,0.2,0,0.3-0.1l2.7-1.8l3,6l-2.9-2
	c-0.2-0.2-0.5-0.2-0.7-0.2c-0.3,0-0.6,0.1-0.9,0.4l-1.9,1.9l-3.5-3.1L15.4-137.9z M20.2-132.4l3.5,2.5l-1,0.5l-2.2-1.1
	c-0.1-0.1-0.3-0.1-0.4,0l-2.3,0.6L20.2-132.4z M11.7-134.8l2.1,1.8h-0.9c-0.2,0-0.3,0.1-0.4,0.2l-2,2l-0.7-0.7L11.7-134.8z
	 M12.4-126.3H6.8l2.3-4.1l0.9,0.9c0.1,0.1,0.3,0.2,0.4,0.2c0.2,0,0.3-0.1,0.4-0.2l2.3-2.3h2l1.4,1.3L12.4-126.3z M14.1-126.3l2-2
	l4-1l2.2,1.1c0.1,0,0.2,0.1,0.3,0.1c0.1,0,0.2,0,0.3-0.1l1.9-0.9l4,2.8H14.1z"/>
<g>
	<path class="st0" d="M76.5-142.3h-27c-0.8,0-1.5,0.7-1.5,1.5v16.5c0,0.8,0.7,1.5,1.5,1.5h27c0.8,0,1.5-0.7,1.5-1.5v-16.5
		C78-141.6,77.4-142.3,76.5-142.3z M76.5-124.3h-27v-16.5h27V-124.3z"/>
	<path class="st0" d="M59.3-128.8c2.1,0,3.8-1.7,3.8-3.8c0-2.1-1.7-3.8-3.8-3.8c-2.1,0-3.8,1.7-3.8,3.8
		C55.5-130.5,57.2-128.8,59.3-128.8z M59.3-134.8c1.2,0,2.2,1,2.2,2.2s-1,2.2-2.2,2.2c-1.2,0-2.2-1-2.2-2.2S58-134.8,59.3-134.8z"/>
	<path class="st0" d="M59.3-125.8c3.7,0,6.8-3,6.8-6.7c0-3.7-3-6.8-6.8-6.8c-3.7,0-6.8,3-6.8,6.8C52.5-128.8,55.6-125.8,59.3-125.8z
		 M59.3-137.8c2.9,0,5.2,2.4,5.2,5.2c0,2.9-2.4,5.2-5.2,5.2c-2.9,0-5.2-2.4-5.2-5.2C54-135.5,56.4-137.8,59.3-137.8z"/>
	<path class="st0" d="M72.8-134.8c1.2,0,2.2-1,2.2-2.2s-1-2.2-2.2-2.2c-1.2,0-2.2,1-2.2,2.2S71.5-134.8,72.8-134.8z M72.8-137.8
		c0.4,0,0.8,0.3,0.8,0.8s-0.3,0.8-0.8,0.8c-0.4,0-0.8-0.3-0.8-0.8S72.4-137.8,72.8-137.8z"/>
</g>
<path class="st1" d="M26.5,4.4c-0.2-0.2-0.5-0.3-0.8-0.3c-0.6,0-1.3,0.3-1.9,1c-0.7,0.7-1.1,1.6-0.9,2.3l-2.1,2.1
	c-0.5-3.3-1.7-5.6-1.7-5.8c-0.2-0.3-0.5-0.5-0.9-0.5c-0.4,0-0.7,0.2-0.9,0.5c-0.1,0.2-2,4.1-2,9c0,0.7,0,1.4,0.1,2.1l-2.6,2.6
	c-0.1,0-0.2-0.1-0.3-0.1c-0.6,0-1.3,0.3-1.9,1c-0.9,0.9-1.2,2.1-0.7,2.7c0.2,0.2,0.5,0.3,0.8,0.3c0.6,0,1.3-0.3,1.9-1
	c0.7-0.7,1.1-1.6,0.9-2.3l2.1-2.1c0.5,3.3,1.7,5.6,1.7,5.8c0.2,0.3,0.5,0.5,0.9,0.5c0.4,0,0.7-0.2,0.9-0.5c0.1-0.2,2-4.1,2-9
	c0-0.7,0-1.4-0.1-2.1L23.6,8c0.1,0,0.2,0.1,0.3,0.1c0.6,0,1.3-0.3,1.9-1C26.8,6.2,27.1,5,26.5,4.4z M11.9,19.7
	c-0.5,0.5-1,0.7-1.3,0.7c0,0,0,0-0.1,0c0,0,0,0,0,0c-0.1-0.2,0.1-0.8,0.7-1.4c0.5-0.5,1-0.7,1.3-0.7c0,0,0,0,0.1,0c0,0,0,0,0,0
	C12.6,18.5,12.5,19.1,11.9,19.7z M16.3,12.8c0-4.7,1.9-8.6,1.9-8.6s1.3,2.6,1.7,6.2l-3.6,3.6C16.3,13.6,16.3,13.2,16.3,12.8z
	 M20.1,12.8c0,4.7-1.9,8.6-1.9,8.6s-1.3-2.6-1.7-6.2l3.6-3.6C20.1,12,20.1,12.3,20.1,12.8z M25.2,6.5c-0.5,0.5-1,0.7-1.3,0.7
	c0,0,0,0-0.1,0c0,0,0,0,0,0c-0.1-0.2,0.1-0.8,0.7-1.4c0.5-0.5,1-0.7,1.3-0.7c0,0,0,0,0.1,0c0,0,0,0,0,0C25.9,5.3,25.8,5.9,25.2,6.5z
	"/>
</svg>
