<?xml version="1.0" encoding="utf-8"?>
<!-- Generator: Adobe Illustrator 19.2.1, SVG Export Plug-In . SVG Version: 6.00 Build 0)  -->
<svg version="1.1" id="Warstwa_1" xmlns="http://www.w3.org/2000/svg" xmlns:xlink="http://www.w3.org/1999/xlink" x="0px" y="0px"
	 viewBox="0 0 70 70" style="enable-background:new 0 0 70 70;" xml:space="preserve">
<style type="text/css">
	.st0{fill:#FFFFFF;}
</style>
<path class="st0" d="M10.2,19c2,0,3.7-1.7,3.7-3.7c0-2-1.7-3.7-3.7-3.7c-2,0-3.7,1.7-3.7,3.7C6.5,17.3,8.2,19,10.2,19z M16.8,39.1
	c2,0,3.7-1.7,3.7-3.7c0-2-1.7-3.7-3.7-3.7s-3.7,1.7-3.7,3.7C13.1,37.4,14.7,39.1,16.8,39.1z M45.7,19.5c0,2,1.7,3.7,3.7,3.7
	c2,0,3.7-1.7,3.7-3.7c0-2-1.7-3.7-3.7-3.7C47.4,15.8,45.7,17.4,45.7,19.5z M63,40.3c-0.8,4.7-2.7,8.9-5.4,12.6
	c-1.9-1.1-4-2.1-6.4-2.9c1.1-4,1.8-8.5,1.9-13.4h7c-0.1-0.5-0.2-1-0.2-1.5c0-0.4,0-0.8,0.1-1.1h-6.9c-0.1-3.3-0.4-6.5-1-9.4
	c-0.8,0.4-1.6,0.6-2.5,0.6c0.5,2.8,0.9,5.7,0.9,8.8H35.6V23.1c3-0.1,5.9-0.4,8.7-0.9c-0.4-0.8-0.6-1.6-0.7-2.5
	c-2.6,0.5-5.3,0.7-8,0.8V6.3c1.2,0.1,2.4,0.2,3.6,0.4c2.7,1.6,5,4.4,6.9,8.1c0.7-0.5,1.5-0.9,2.4-1c-1-2.1-2.2-3.9-3.5-5.4
	c4.1,1.6,7.8,4.2,10.7,7.4c-0.4,0.2-0.9,0.5-1.4,0.7c0.5,0.7,0.8,1.6,0.9,2.5c0.7-0.4,1.5-0.7,2.2-1.1c2.7,3.6,4.7,7.8,5.5,12.4
	c0.8-0.4,1.8-0.7,2.8-0.7c0.6,0,1.2,0.1,1.8,0.3c-2.7-15.9-16.6-28-33.2-28c-8.4,0-16,3.1-21.9,8.1c1.5,0.6,2.7,1.7,3.3,3.2
	c2.4-2,5-3.6,7.9-4.7c-2.2,2.5-4,5.9-5.3,9.7c-0.8-0.3-1.7-0.6-2.4-0.9c-0.3,0.9-0.8,1.6-1.4,2.2c1,0.4,2,0.8,3,1.2
	c-0.8,2.8-1.4,5.9-1.7,9.1c0.3-0.1,0.7-0.1,1.1-0.1c0.5,0,1.1,0.1,1.6,0.2c0.3-3,0.9-5.9,1.6-8.5c4,1.1,8.4,1.8,13,1.9v10.9H22.4
	c0.1,0.4,0.1,0.8,0.1,1.3c0,0.5-0.1,0.9-0.2,1.3H33v6.4c0.4-0.1,0.8-0.1,1.2-0.1c0.5,0,0.9,0.1,1.4,0.2v-6.4h14.9
	c-0.1,4.5-0.8,8.8-1.8,12.6c-2.8-0.8-5.7-1.3-8.7-1.6C40,48,40,48.4,40,48.8c0,0.5-0.1,1-0.2,1.5c2.8,0.3,5.5,0.8,8.1,1.5
	c-2,5.8-5.1,10.2-8.7,12.3c-1.2,0.2-2.4,0.3-3.6,0.4v-10c-0.4,0.1-0.9,0.2-1.4,0.2c-0.4,0-0.8,0-1.2-0.1v10
	c-1.2-0.1-2.4-0.2-3.6-0.4c-3.6-2.1-6.7-6.5-8.7-12.3c2.5-0.7,5.1-1.2,7.9-1.5c-0.1-0.5-0.2-1-0.2-1.5c0-0.4,0-0.7,0.1-1.1
	c-3,0.3-5.9,0.8-8.6,1.6c-0.7-2.6-1.2-5.4-1.5-8.3c-0.5,0.1-1,0.2-1.6,0.2c-0.4,0-0.7,0-1.1-0.1c0.3,3.2,0.9,6.2,1.6,9
	c-2.3,0.8-4.4,1.8-6.4,2.9c-3.4-4.6-5.6-10.2-5.8-16.2h5.9c-0.1-0.4-0.2-0.9-0.2-1.3c0-0.4,0.1-0.9,0.1-1.3H5.2
	c0.2-4.8,1.6-9.2,3.8-13.1c-1.6-0.3-2.9-1.3-3.7-2.7c-3,5-4.7,10.9-4.7,17.1c0,18.6,15.1,33.7,33.7,33.7C51,69.1,65,56.8,67.5,40.7
	c-0.6,0.2-1.2,0.3-1.9,0.3C64.7,41,63.8,40.8,63,40.3z M33,20.5c-4.3-0.1-8.5-0.7-12.2-1.7c2-5.7,5.1-10,8.6-12.1
	c1.2-0.2,2.4-0.3,3.6-0.4V20.5z M12.7,54.9c1.7-0.9,3.5-1.7,5.4-2.4c1.4,4,3.2,7.3,5.4,9.9C19.4,60.8,15.7,58.2,12.7,54.9z M45,62.5
	c2.2-2.6,4-6,5.4-9.9c2,0.7,3.8,1.5,5.4,2.4C52.8,58.2,49.1,60.8,45,62.5z M65.7,31.5c-2,0-3.7,1.7-3.7,3.7c0,2,1.7,3.7,3.7,3.7
	c2,0,3.7-1.7,3.7-3.7C69.4,33.1,67.7,31.5,65.7,31.5z M37.9,48.8c0-2-1.7-3.7-3.7-3.7c-2,0-3.7,1.7-3.7,3.7c0,2,1.7,3.7,3.7,3.7
	C36.2,52.5,37.9,50.8,37.9,48.8z"/>
</svg>
