<?xml version="1.0" encoding="utf-8"?>
<!-- Generator: Adobe Illustrator 19.2.1, SVG Export Plug-In . SVG Version: 6.00 Build 0)  -->
<svg version="1.1" id="Warstwa_1" xmlns="http://www.w3.org/2000/svg" xmlns:xlink="http://www.w3.org/1999/xlink" x="0px" y="0px"
	 viewBox="0 0 70 70" style="enable-background:new 0 0 70 70;" xml:space="preserve">
<style type="text/css">
	.st0{fill:#EE6823;}
	.st1{fill:#FFFFFF;}
</style>
<path class="st0" d="M18,29c0,0.1,0,0.2,0.1,0.3l16.2,34.2c0.3,0.6,0.9,1,1.6,1c0.7,0,1.3-0.4,1.6-1l16.2-34.2c0,0,0-0.1,0-0.1"/>
<path class="st0" d="M53.6,29.1c1-2.4,1.6-5,1.6-7.8c0-10.7-8.7-19.4-19.4-19.4c-10.7,0-19.4,8.7-19.4,19.4c0,2.7,0.6,5.3,1.6,7.6"
	/>
<path class="st1" d="M35.9,9.3c6.6,0,12.1,5.4,12.1,12.1c0,6.7-5.4,12.1-12.1,12.1c-6.6,0-12.1-5.4-12.1-12.1
	C23.8,14.7,29.2,9.3,35.9,9.3z"/>
</svg>
