<?xml version="1.0" encoding="utf-8"?>
<!-- Generator: Adobe Illustrator 19.2.1, SVG Export Plug-In . SVG Version: 6.00 Build 0)  -->
<svg version="1.1" id="Warstwa_1" xmlns="http://www.w3.org/2000/svg" xmlns:xlink="http://www.w3.org/1999/xlink" x="0px" y="0px"
	 viewBox="0 0 36.8 25.2" style="enable-background:new 0 0 36.8 25.2;" xml:space="preserve">
<style type="text/css">
	.st0{fill:#FFFFFF;}
</style>
<path class="st0" d="M29.2,19.9l-3.5-2.5l-7-14.1c-0.2-0.4-0.6-0.7-1.1-0.7c0,0,0,0,0,0c-0.5,0-0.9,0.3-1.1,0.7l-3.7,8.5l-0.5-0.4
	c-0.2-0.2-0.5-0.3-0.8-0.3c-0.1,0-0.1,0-0.2,0c-0.4,0.1-0.7,0.3-0.9,0.6l-4.9,8.5c-0.2,0.4-0.2,0.8,0,1.2c0.2,0.4,0.6,0.6,1.1,0.6
	h21.9c0.5,0,1-0.3,1.2-0.8C29.9,20.7,29.7,20.2,29.2,19.9z M17.6,3.8L20,8.7l-2.2,1.5l-0.9-1.8c-0.1-0.2-0.3-0.3-0.5-0.3h-0.6
	L17.6,3.8z M15.2,9.3H16l1,2.1c0.1,0.2,0.2,0.3,0.4,0.3c0.1,0,0.1,0,0.2,0c0.1,0,0.2,0,0.3-0.1l2.7-1.8l3,6l-2.9-2
	c-0.2-0.2-0.5-0.2-0.7-0.2c-0.3,0-0.6,0.1-0.9,0.4l-1.9,1.9l-3.5-3.1L15.2,9.3z M20,14.8l3.5,2.5l-1,0.5l-2.2-1.1
	c-0.1-0.1-0.3-0.1-0.4,0l-2.3,0.6L20,14.8z M11.5,12.3l2.1,1.8h-0.9c-0.2,0-0.3,0.1-0.4,0.2l-2,2l-0.7-0.7L11.5,12.3z M12.2,20.9
	H6.6l2.3-4.1l0.9,0.9c0.1,0.1,0.3,0.2,0.4,0.2c0.2,0,0.3-0.1,0.4-0.2l2.3-2.3h2l1.4,1.3L12.2,20.9z M13.9,20.9l2-2l4-1l2.2,1.1
	c0.1,0,0.2,0.1,0.3,0.1c0.1,0,0.2,0,0.3-0.1l1.9-0.9l4,2.8H13.9z"/>
</svg>
